<svg width="1228" height="310" xmlns="http://www.w3.org/2000/svg" xmlns:xlink="http://www.w3.org/1999/xlink" overflow="hidden"><defs><clipPath id="clip0"><rect x="29" y="205" width="1228" height="310"/></clipPath></defs><g clip-path="url(#clip0)" transform="translate(-29 -205)"><path d="M1256.7 89.3072 1154.13 113.391C1052.35 137.999 847.204 76.7271 642.847 80.392 438.491 84.5806 233.345 154.23 131.561 133.81L28.9878 113.391 28.9878 309.207 131.561 309.207C233.345 309.207 438.491 309.207 642.847 309.207 847.204 309.207 1052.35 309.207 1154.13 309.207L1256.7 309.207 1256.7 89.3072Z" fill="#F1BC8C" fill-rule="evenodd" transform="matrix(1 0 0 1.00257 0.356475 205)"/><path d="M1256.7 148.829 1188.85 160.098C1120.2 171.857 983.702 194.885 847.204 187.046 710.703 179.206 574.991 141.479 438.491 118.451 301.99 95.4225 165.488 88.0729 96.8437 84.153L28.9878 80.2333 28.9878 309.048 96.8437 309.048C165.488 309.048 301.99 309.048 438.491 309.048 574.991 309.048 710.703 309.048 847.204 309.048 983.702 309.048 1120.2 309.048 1188.85 309.048L1256.7 309.048 1256.7 148.829Z" fill="#B46C2B" fill-rule="evenodd" transform="matrix(1 0 0 1.00257 0.356475 205)"/><path d="M28.8919 292.582 131.216 271.268C233.54 254.798 438.188 215.076 642.837 215.076 847.485 215.076 1052.14 259.642 1154.46 276.111L1256.78 292.582 1256.78 309.051 1154.46 309.051C1052.14 309.051 847.485 309.051 642.837 309.051 438.188 309.051 233.54 309.051 131.216 309.051L28.8919 309.051 28.8919 292.582Z" fill="#F1BC8C" fill-rule="evenodd" transform="matrix(1 0 0 1.00257 0.356475 205)"/><path d="M1.70138 81.0539 0 102.119 20.842 111.736 22.118 124.558 6.38019 140.585 15.7378 158.902 37.0051 154.323 45.9374 163.94 40.8332 187.294 57.4217 197.827 73.1596 180.883 85.9195 183.631 94.0014 206.527 112.717 203.78 117.396 180.883 127.604 176.304 129.305 177.677 145.894 190.957 162.057 177.677 153.976 155.697 160.781 146.081 182.474 147.912 189.279 127.305 171.414 113.109 171.414 102.577 191.831 91.1285 187.152 69.1477 165.034 67.7738 160.781 59.0732 171.414 38.0083 156.527 22.4386 137.387 33.8869 128.88 27.9338 128.88 5.49518 107.612 0 96.5532 20.149 88.0466 20.149 74.8609 1.83173 56.1457 9.61658 56.1457 32.9711 48.9148 38.4662 28.0728 29.3076 15.3124 46.7091 28.0728 65.4842 22.9687 77.3904 1.70138 81.0539Z" fill="#B46C2B" transform="matrix(1 0 0 1.00257 0.356475 205)"/><path d="M152.275 103.035C152.275 136.671 126.947 163.939 95.7037 163.939 64.4604 163.939 39.1327 136.671 39.1327 103.035 39.1327 69.3978 64.4604 42.1297 95.7037 42.1297 126.947 42.1297 152.275 69.3978 152.275 103.035Z" fill="#FFFFFF" transform="matrix(1 0 0 1.00257 0.356475 205)"/><path d="M745.549 85.7777 744.305 101.892 759.542 109.248 760.475 119.057 748.969 131.319 755.811 145.331 771.359 141.828 777.89 149.185 774.158 167.051 786.286 175.108 797.792 162.146 807.122 164.248 813.03 181.763 826.713 179.662 830.134 162.146 837.597 158.643 838.841 159.694 850.972 169.853 862.788 159.694 856.876 142.879 861.854 135.523 877.714 136.923 882.691 121.16 869.627 110.3 869.627 102.243 884.552 93.4849 881.137 76.6698 864.963 75.6189 861.854 68.9629 869.627 52.8486 858.745 40.9379 844.75 49.6958 838.53 45.1417 838.53 27.9764 822.981 23.7727 814.896 39.1864 808.676 39.1864 799.037 25.1739 785.353 31.1292 785.353 48.9951 780.067 53.1989 764.829 46.1927 755.5 59.5045 764.829 73.8673 761.098 82.9754 745.549 85.7777Z" fill="#F1BC8C" transform="matrix(1 0 0 1.00257 0.356475 205)"/><path d="M855.634 102.593C855.634 128.325 837.117 149.184 814.274 149.184 791.432 149.184 772.915 128.325 772.915 102.593 772.915 76.8611 791.432 56.0014 814.274 56.0014 837.117 56.0014 855.634 76.8611 855.634 102.593Z" fill="#FFFFFF" transform="matrix(1 0 0 1.00257 0.356475 205)"/><path d="M1165.64 73.338 1164.63 86.2194 1177.08 92.1003 1177.85 99.9408 1168.44 109.742 1174.03 120.943 1186.75 118.142 1192.08 124.023 1189.04 138.305 1198.95 144.746 1208.36 134.384 1215.99 136.064 1220.82 150.066 1232.01 148.386 1234.8 134.384 1240.9 131.584 1241.92 132.425 1251.84 140.545 1261.5 132.425 1256.67 118.983 1260.74 113.103 1273.7 114.222 1277.77 101.621 1267.09 92.9404 1267.09 86.4997 1279.3 79.4986 1276.51 66.0572 1263.28 65.2171 1260.74 59.8965 1267.09 47.0152 1258.2 37.4942 1246.76 44.4949 1241.67 40.8545 1241.67 27.1331 1228.95 23.7727 1222.34 36.094 1217.26 36.094 1209.38 24.8928 1198.19 29.6533 1198.19 43.9349 1193.87 47.2952 1181.41 41.6946 1173.78 52.3358 1181.41 63.817 1178.36 71.0977 1165.64 73.338Z" fill="#F1BC8C" transform="matrix(1 0 0 1.00257 0.356475 205)"/><path d="M1255.65 86.7792C1255.65 107.348 1240.51 124.023 1221.83 124.023 1203.16 124.023 1188.02 107.348 1188.02 86.7792 1188.02 66.2099 1203.16 49.5352 1221.83 49.5352 1240.51 49.5352 1255.65 66.2099 1255.65 86.7792Z" fill="#FFFFFF" transform="matrix(1 0 0 1.00257 0.356475 205)"/></g></svg>